<svg width="508" height="1226" viewBox="0 0 508 1226" fill="none" xmlns="http://www.w3.org/2000/svg">
<path d="M422.407 765.92L379.123 850.805M422.407 765.92L420.253 770.26L381.276 846.848L378.944 850.933M422.407 765.92L457.608 678.355M422.407 765.92L400.317 751.049L356.49 726.988L296.682 697.374L229.693 666.739M126.601 408.064L145.463 371.238L145.821 319.222L139.892 272.759L127.86 232.741L110.26 200.128L87.6306 175.365L60.5108 158.707L29.7992 150.282H-3.96597L-39.8858 158.133L-77.2426 173.577L-115.318 196.171L-153.214 225.402L-190.391 260.377L-226.131 300.394L-259.897 344.879L-290.967 392.81L-318.985 443.358L-343.41 495.756L-363.885 549.24M126.601 408.064L123.374 435.316L120.857 456.123M126.601 408.064L126.965 364.6M-363.885 549.24L-379.869 602.469L-391.184 655.06M-363.885 549.24L-311.801 558.176L-251.994 574.897L-193.624 596.917L-145.132 620.978L-113.162 643.571L-124.477 683.588L-131.842 722.904L-122.861 751.241M-363.885 549.24H-401.242L-418.843 557.857M-391.184 655.06L-432.852 670.504L-454.403 693.8M-391.184 655.06L-397.65 705.671L-398.727 753.347L-394.597 797.321L-385.078 836.636L-370.171 870.143M-454.403 693.8L-460.33 739.561L-462.845 759.283L-464.282 799.491L-465 821.382L-464.82 860.315L-462.845 883.802L-459.612 923.245L-446.86 980.111L-426.565 1029.45L-408.426 1061.93L-401.242 1074.82L-371.788 1118.22L-334.61 1151.41L-290.248 1173.18L-239.422 1182.3L-183.027 1178.34L-122.143 1160.6L-58.2051 1129.01L7.34893 1084.02L72.903 1026.06L136.3 956.624L195.929 877.355L249.986 790.301L296.868 697.949L335.302 602.852L364.394 507.755L383.25 415.403M-454.403 693.8L-450.812 677.334L-439.676 626.339L-418.843 557.857M383.25 415.403L391.691 328.412L389.538 248.761L319.852 242.634L249.45 253.74L188.747 280.673L146.179 319.222L132.531 351.516L129.834 358.154L127.502 363.707M383.25 415.403L443.416 440.678L484.189 472.078L500.355 505.075M383.25 415.403L312.491 400.341L241.546 397.278L180.843 406.979M-285.4 295.352L-325.271 357.069L-327.605 361.218L-361.191 422.041L-392.621 489.311L-418.843 557.857M-410.401 919.288L-387.772 951.263L-359.395 974.941L-325.63 989.62L-287.195 994.662L-244.63 989.429L-199.012 974.048L-151.238 948.199L-102.387 912.65L-53.7151 867.654L-6.48033 814.362L37.8809 754.24M37.8809 754.24L78.2914 688.439L113.673 618.999M37.8809 754.24L16.3291 724.499L16.8683 707.778M37.8809 754.24L79.0097 793.556L134.326 836.636M113.673 618.999L143.125 547.582L165.757 476.227L181.022 406.787M113.673 618.999L165.578 639.295L229.693 666.739M113.673 618.999L81.1649 608.788L71.8257 609.872M181.022 406.787L188.747 340.922L188.926 280.481L181.38 226.679L166.837 180.598L146 143.261L119.24 115.116L87.4511 96.607L51.5306 87.6716L12.1987 88.1819L-29.4693 97.8831M181.022 406.787L138.997 427.594L125.885 486.95L106.489 547.964L81.3444 608.979L51.1715 668.143L16.8683 724.308L-21.0278 775.813L-61.2581 821.382L-102.925 860.123L-144.772 891.141L-185.901 913.543L-225.234 927.393L-244.271 989.11L-243.193 1057.98L-221.821 1124.16L-183.387 1177.96L-133.457 1212.04M-142.438 857.251L-158.961 851.124L-176.382 850.933L-217.331 850.614L-223.437 853.103L-275.521 873.59L-325.092 916.989L-359.215 975.069L-372.865 1039.66M131.272 47.4627L87.092 96.607L60.3312 158.515L54.4048 224.317L70.2091 284.63M70.2091 284.63L105.052 331.285M70.2091 284.63L90.5041 298.096L107.386 317.435L114.571 331.093M70.2091 284.63L47.2208 277.418L21.7169 276.396L-5.58192 281.375L-33.9587 292.161L-62.8747 308.5L-91.7907 329.816L-120.347 355.857L-147.646 385.981L-173.329 419.552L-197.036 455.74L-218.409 494.353L-236.907 534.306L-252.353 574.897L-264.206 615.425L-272.468 655.251L-276.599 693.481L-276.779 729.541L-272.827 762.538L-264.745 791.768L-252.712 816.723L-236.728 836.636L-217.331 850.933L-194.522 859.422L-169.018 861.527L-153.753 859.23M507 424.211L503.946 349.73M503.946 349.73L488.138 306.712L475.026 236.571M503.946 349.73L491.371 283.736L475.026 236.571M475.026 236.571L452.4 176.96L421.506 128.901L381.455 89.9691L325.781 70.6305L261.846 73.8217L198.984 99.287L146 143.645L110.44 200.32L99.1251 252.846L97.329 261.143L106.489 310.095L107.926 317.627M475.026 236.571L435.154 199.618L377.148 178.236L308.9 175.748L240.114 192.788L181.022 226.679L139.892 272.439L121.936 323.371M-169.198 861.336L-221.103 886.291L-262.411 932.945M-262.411 932.945L-287.195 994.982L-291.685 1063.72L-274.803 1129.01L-221.821 1124.54L-164.708 1106.93L-104.542 1076.29L-42.9388 1033.02L18.4843 977.813L78.1119 911.756L134.326 836.636M-262.411 932.945L-295.816 929.371M-262.411 932.945L-225.772 927.904L-189.672 881.824L-155.908 869.633M-391.364 655.251L-335.149 649.699L-272.109 655.251L-211.763 671.015L-162.733 694.885L-166.324 730.052L-165.965 763.048L-161.834 793.364L-153.932 820.298M-29.4693 97.8831L-39.8858 157.813L-31.6239 222.02L-5.22283 281.375L35.0075 327.328L60.1517 322.988L83.6792 324.264L105.231 331.093L120.32 341.113L120.678 342.198M-29.4693 97.8831L-1.45161 50.8455M-29.4693 97.8831L-72.573 116.136L-116.216 142.559L-159.859 176.45M126.965 364.6L126.786 364.09L126.064 360.132L126.243 357.452L125.527 351.325L124.984 347.559L124.805 345.262L122.115 323.881L112.056 289.48L96.9699 261.143L77.7522 239.379L54.5843 224.508L28.1826 216.786M126.965 364.6V363.579L126.064 359.814L124.805 357.069M28.1826 216.786L-0.912337 216.084L-31.8034 222.211L-63.952 234.911M28.1826 216.786L29.6196 150.409L51.1715 87.991L90.145 38.3364L140.614 8.33904M28.1826 216.786L47.2208 277.801L83.8588 324.775L111.697 340.029L121.572 345.581M-63.952 234.911L-96.6393 253.931M-63.952 234.911L-77.4222 173.386L-72.573 116.52L-50.3023 72.0352M-63.952 234.911L-33.7791 292.352L8.42688 337.348M-96.6393 253.931L-129.327 278.695L-161.475 308.627L-192.366 343.092L-221.641 381.322M-96.6393 253.931L-115.318 195.788L-116.216 142.879L-99.5134 102.16L-50.3023 72.0352M-96.6393 253.931L-62.6952 308.627L-18.5135 352.091M-221.641 381.322L-248.761 422.743M-221.641 381.322L-259.716 344.368L-281.808 314.372L-285.22 295.225L-242.116 237.784L-196.318 185.959M-221.641 381.322L-172.97 419.552L-120.706 453.761L-72.573 478.908L-35.3957 491.289L-14.203 489.821L14.892 452.868L45.7837 419.871M-248.761 422.743L-273.007 466.717L-294.02 512.096L-311.621 558.367L-325.271 604.639L-334.79 650.017L-339.998 693.608L-340.537 734.711L-336.585 772.367L-327.965 805.746L-314.854 834.275L-297.253 857.251L-275.521 873.909L-249.839 883.802M-248.761 422.743L-290.967 392.427L-317.548 369.451L-325.092 356.941M-248.761 422.743L-196.856 455.931L-142.797 487.332L-94.6642 512.096L-59.1028 526.775L-40.9637 529.839M-249.839 883.802L-220.923 886.482L-189.313 881.824L-149.981 861.911L-141.899 857.762L-141.18 857.443M-249.839 883.802L-194.702 859.549L-164.349 859.422L-153.753 859.23M-249.839 883.802L-295.816 929.371M-120.347 849.912L-144.952 891.333L-150.879 948.199L-136.691 1012.98L-104.182 1076.29L-58.0256 1128.82L-5.04329 1163.09L47.2208 1174.39L91.2223 1161.69M-14.3825 489.694L-40.9637 529.839M-40.9637 529.839L-64.6709 572.536L-85.1448 616.702L-101.848 661.697M-130.225 828.914L-161.655 793.173L-211.404 769.686L-272.648 761.963L-336.766 771.473L-394.417 796.811L-437.701 834.275M-437.701 834.275L-460.33 878.377M-437.701 834.275L-442.191 783.536L-440.574 728.456L-433.031 670.313L-419.741 610.064L-401.242 548.858L-377.714 487.715M-437.701 834.275L-427.104 879.653L-410.401 918.968L-429.977 974.75L-404.654 1011.51L-372.865 1038.96L-364.244 1100.67L-322.577 1120.78L-274.983 1128.82L-239.961 1182.11L-191.289 1215.68M-460.33 878.377L-459.612 922.925M-460.33 878.377L-465 821L-442.011 783.663L-398.548 753.22L-340.537 734.009L-276.42 729.158L-215.176 739.37L-165.786 762.857L-134.895 796.236L-126.453 833.381L-126.274 834.658M-460.33 878.377L-448.657 930.265L-430.157 974.941L-426.924 1029.13L-399.266 1069.97L-364.423 1100.86L-334.969 1151.09L-289.171 1183.2L-243.553 1205.79L-191.289 1215.68M195.572 1.89362L140.614 8.33904M140.614 8.33904L186.23 18.4236L244.242 12.4877L288.063 35.4639L325.423 70.9499L355.417 118.881L376.969 178.428L389.18 248.761L448.087 271.355L487.959 306.84L491.013 385.981L506.815 424.339L500.176 505.267L483.652 590.662L457.608 678.355M140.614 8.33904L91.4025 10.1263L45.6042 39.3578L-1.45161 50.8455M-138.307 855.975L-138.846 855.783L-148.724 851.316L-177.46 838.04M-177.46 838.04L-184.823 837.849L-236.908 836.445L-297.433 857.06L-350.235 897.268M-177.46 838.04L-159.14 851.316M-177.46 838.04L-192.546 819.723M-350.235 897.268L-387.772 951.582L-404.834 1012.02L-399.266 1070.36L-371.967 1118.42M-350.235 897.268L-370.171 870.143M-350.235 897.268L-325.271 917.181L-295.816 929.371M-133.457 1212.04L-71.136 1194.68L-17.7952 1204.9M-133.457 1212.04L-191.289 1215.68M-133.457 1212.04L-79.2183 1221.74M-17.7952 1204.9L29.7992 1190.34L58.3555 1176.94L90.5041 1161.69L152.466 1120.2L213.891 1067.1L273.334 1003.47L328.836 930.775L378.944 850.933M-17.7952 1204.9L-79.2183 1221.74M-17.7952 1204.9L46.6815 1174.2L112.415 1130.1L177.789 1073.42L241.009 1005.26L300.28 927.393L353.8 841.615L400.138 750.475L437.851 656.847L466.048 563.026L483.831 471.696L491.192 385.407L450.962 351.708L391.154 327.838L320.574 317.243L249.45 321.902L188.204 340.794L145.284 370.727L138.46 427.083L120.499 455.421L112.774 489.694L109.183 505.777L92.6594 557.474L71.4666 609.106L45.9633 659.399L16.6888 706.884L-15.2802 750.667L-49.4045 789.407L-84.7857 822.595L-119.628 848.443L-120.347 848.827L-123.939 849.912L-126.633 851.508L-134.895 856.868L-137.409 858.336L-155.908 868.548L-186.44 913.032L-199.191 973.154L-191.828 1040.74L-165.067 1106.23L-122.861 1159.9L-71.3155 1194.11L-5.94106 1162.58L61.0494 1117.2L127.86 1058.68L192.696 988.536L253.405 908.183L308.356 819.915L356.132 726.286L395.103 629.977L424.202 533.412L442.879 439.784L450.783 351.198L448.087 270.27L434.975 198.66L412.349 138.028L381.097 89.2672L342.305 53.0153L297.226 29.5288L274.772 21.8064L244.242 11.4032L195.393 1L142.767 2.97811L91.0427 9.04178L39.1384 21.8064L6.09207 36.1666L-14.3825 45.1012L-47.9675 65.7799L-68.2625 78.162L-99.8724 101.074L-148.903 139.304L-196.677 184.874L-202.783 216.084L-190.75 258.973L-161.834 307.606L-120.167 354.963L-71.8548 394.214L-23.7217 419.68L17.2274 427.976L45.4246 418.467L77.5726 389.938L109.721 367.153L110.62 366.578L123.911 359.43L125.17 358.856M378.944 850.933L353.8 841.997L308.721 820.617L249.629 789.982L185.335 754.113M457.608 678.355L438.208 657.229L395.467 630.679L335.302 602.469L266.331 577.004M-1.45161 50.8455L39.4975 22.8909M-1.45161 50.8455L-50.3023 72.0352M-159.859 176.45L-202.424 216.786L-243.373 263.121L-281.987 314.244L-317.727 369.259L-349.696 427.402L-377.714 487.715M-159.859 176.45L-148.544 140.39M-159.859 176.45L-153.213 224.7L-129.327 278.311L-91.431 329.816L-45.094 371.429L3.03907 397.278L45.9633 403.916L78.1119 391.151M-377.714 487.715L-343.59 495.566L-294.2 511.904L-236.727 534.178L-179.615 559.261M-377.714 487.715L-392.441 489.119M-191.289 1215.68L-136.331 1225L-79.2183 1221.74M-372.865 1039.34L-334.969 1056.7L-291.506 1063.21L-243.373 1058.17L-191.468 1041.44L-137.05 1012.98L-81.1941 972.962L-25.6974 922.159L28.1832 861.911L78.8301 793.364L124.984 718.563L165.22 639.295L198.626 557.857L224.127 476.419L241.188 397.278L249.45 322.286L248.913 253.612L239.75 192.788L222.69 140.9L198.262 98.9684L167.374 67.7588L130.914 47.4627M124.805 357.069L121.035 356.941L83.1406 354.197M124.805 357.069L123.01 351.006M83.1406 354.197L34.6484 327.647L8.42688 337.348M83.1406 354.197L56.7395 363.707L8.42688 337.348M83.1406 354.197L108.464 350.112L123.01 351.006M8.42688 337.348L-18.5135 352.091M-18.5135 352.091L-45.2736 371.621L-71.6753 395.491L-96.9984 422.935L-120.886 453.633L-142.797 486.95L-162.553 522.499L-179.615 559.261M-18.5135 352.091L29.7992 378.067L75.0582 383.492L110.26 368.366L111.158 367.855M-179.615 559.261L-193.803 596.789L-204.58 634.062L-211.943 670.824L-215.715 706.182L-215.535 739.37L-211.584 769.877L-203.861 796.938L-153.932 820.298M-179.615 559.261L-131.123 583.641L-98.2559 603.554L-84.9652 616.51M-153.932 820.298L-126.812 852.018M-153.932 820.298L-142.258 843.082M-84.6061 823.489L-103.285 860.442L-102.207 912.841L-81.1941 973.282L-42.9388 1033.4L7.16939 1084.14L61.5887 1118.1L112.416 1130.8L152.645 1120.78M342.663 53.718L307.641 41.7192L288.427 35.0813L227.181 39.932L167.91 67.8865L119.061 115.243L87.4511 175.173L77.7522 239.06L89.7859 294.139L90.6836 297.905L108.464 322.477L114.571 331.093M114.571 331.093L119.777 341.305L120.499 342.39L121.393 345.453L123.01 351.006M-153.753 859.23L-147.825 858.336L-142.617 857.443L-141.36 857.251L-138.486 856.166L-133.098 854.379L-126.453 852.784L-123.58 852.018L-120.167 850.039L-119.449 849.72M-295.816 929.371L-325.63 990.003L-335.149 1057.27L-322.936 1121.48L-290.788 1173.69L-243.552 1206.49M-14.0234 46.1865L-50.3023 72.0352M-126.812 794.258L-135.433 760.878L-166.145 730.244L-215.355 706.565L-276.42 693.608L-340.178 693.481L-397.65 705.99L-440.574 729.158L-463.204 759.666M-49.225 790.301L-61.4377 821.51L-53.3559 867.654L-25.5179 922.351L18.6638 977.941L72.5439 1026.06L128.403 1059.57L177.968 1073.93L214.249 1067.48M-370.171 870.143L-315.033 834.083L-252.892 816.532L-192.546 819.723M-370.171 870.143L-410.401 919.67M-15.1007 751.56L-21.3869 776.132L-6.48033 814.745L28.1826 862.229L78.1119 912.14L135.943 956.624L193.054 989.301L241.188 1005.77L273.52 1003.98M134.326 836.636L195.75 877.164L253.942 909.075L300.459 927.904L329.193 931.159M134.326 836.636L185.335 754.113M46.1429 660.293L50.992 668.335L78.471 688.631L125.349 718.563L185.335 754.113M185.335 754.113L229.693 666.739M-242.295 237.975L-243.552 263.249L-226.311 299.884L-192.726 342.709L-147.466 385.789L-96.9984 422.552L-48.8659 447.698L-9.89242 457.91L14.8927 452.166M-114.42 706.884L-124.298 683.78L-155.549 658.315L-204.22 634.445L-263.668 615.617L-325.091 604.448L-379.69 602.66L-419.381 610.383L-439.317 626.339M484.01 590.662L466.406 563.41L424.739 534.306L364.573 507.628L294.35 487.332L224.664 476.546H165.757L125.706 487.141L109.721 506.735M-192.546 819.723L-142.258 843.082M-192.546 819.723L-204.041 796.811L-264.925 791.577L-328.324 805.363L-385.258 836.445L-427.284 880.228L-448.836 930.457L-447.22 980.111M266.331 577.004L198.984 557.857L142.946 547.773L106.13 547.964L93.0185 558.176M266.331 577.004L229.693 666.739M266.331 577.004L293.992 487.332L312.312 400.15L320.753 317.818L319.315 242.443L308.542 175.748L288.964 119.2L261.303 73.6308L226.638 39.7403L186.051 17.8494L131.093 47.2718L89.9655 37.7622L45.2451 39.0384L11.6594 87.991L-4.50465 149.707L-1.09188 215.573L21.5373 276.205L59.7926 322.988L108.464 349.73L123.01 350.623M-142.258 843.082L-132.919 854.188M-361.011 421.85L-349.517 427.594L-318.805 443.23L-272.827 466.526L-218.05 494.353L-162.373 522.69L-114.061 547.262L-79.9366 564.494L-64.4913 572.344M124.448 360.707L117.804 363.005L103.974 367.855L74.6991 383.492L45.4246 404.107L16.8677 429.381L-10.6106 458.612L-36.2941 491.481L-59.8217 527.158L-80.8349 565.005L-98.9747 604.32L-113.881 644.273L-102.566 662.399L-115.138 707.65L-123.58 751.943L-127.711 794.833L-127.171 834.083L-126.992 835.36L-124.836 850.422L-124.477 851.508M452.579 176.832L412.707 138.794L355.775 118.498L289.322 119.2L223.047 140.9L166.473 180.598L127.681 232.614L111.697 289.098L118.163 330.008L118.522 332.497L119.956 341.496M104.333 367.855L56.9191 363.579L29.9788 378.259L3.03843 397.66L-23.3626 421.148L-48.6863 448.592L-72.573 479.227L-94.6635 512.415L-114.24 547.773L-131.123 584.407L-145.132 621.68L-155.728 658.825L-162.912 695.396L-132.021 723.414L-135.613 761.07L-135.074 796.811L-130.404 829.424L-126.274 843.274L-124.298 849.912" stroke="#4F00DE" stroke-opacity="0.3" stroke-width="0.5" stroke-linecap="round" stroke-linejoin="round"/>
</svg>
