<svg width="351" height="711" viewBox="0 0 351 711" fill="none" xmlns="http://www.w3.org/2000/svg">
<path d="M49.5117 337.549L157.896 236.435L268.248 133.543L343.647 113.924L418.061 94.685L432.189 61.7L445.554 29.8896" stroke="white" stroke-linecap="round" stroke-linejoin="round"/>
<path d="M51.0996 270.976L132.403 195.005L214.66 117.638L324.028 89.574L432.221 61.7002" stroke="white" stroke-linecap="round" stroke-linejoin="round"/>
<path d="M572.603 230.529L507.617 314.182L441.076 399.994L354.502 477.742L269.294 554.316L202.72 588.666L139.1 621.46" stroke="white" stroke-linecap="round" stroke-linejoin="round"/>
<path d="M134.15 480.092L159.294 377.804L213.867 327.739L268.852 277.071L268.662 204.625" stroke="white" stroke-linecap="round" stroke-linejoin="round"/>
<path d="M505.042 51.668L571.996 131.384L640.125 212.466L629.331 249.578L545.297 359.518L458.12 473.203L399.42 525.617L341.292 577.46L269.226 554.285L197.351 531.109L178.303 454.726L159.255 377.772L103.698 357.359L49.5061 337.517L26.5214 322.977L5.31445 309.421" stroke="white" stroke-linecap="round" stroke-linejoin="round"/>
<path d="M153.006 555.079L178.34 454.759" stroke="white" stroke-linecap="round" stroke-linejoin="round"/>
<path d="M469.525 649.335L369.395 624.795L341.299 577.46" stroke="white" stroke-linecap="round" stroke-linejoin="round"/>
<path d="M423.779 326.152L346.222 301.611L268.664 204.625L268.283 133.543" stroke="white" stroke-linecap="round" stroke-linejoin="round"/>
<path d="M268.846 277.071L346.213 301.611" stroke="white" stroke-linecap="round" stroke-linejoin="round"/>
<path d="M268.658 204.592L345.232 228.752" stroke="white" stroke-linecap="round" stroke-linejoin="round"/>
<path d="M109.987 578.254L65.7954 519.142L22.2069 460.822L11.413 451.394L1 442.155L3.15879 375.201" stroke="white" stroke-linecap="round" stroke-linejoin="round"/>
<path d="M514.472 211.102L469.519 268.246L423.772 326.152L309.514 429.615L197.416 531.11L153.034 555.047L110.049 578.223" stroke="white" stroke-linecap="round" stroke-linejoin="round"/>
<path d="M623.431 573.937L583.176 629.113L536.064 649.939L503.872 649.558L469.522 649.367L443.395 603.239L341.297 577.524L251.58 621.906L167.355 663.717" stroke="white" stroke-linecap="round" stroke-linejoin="round"/>
<path d="M426.695 688.986L362.28 708.034L336.756 709.019" stroke="white" stroke-linecap="round" stroke-linejoin="round"/>
<path d="M672.511 226.785L676.448 293.739L661.527 309.041L646.225 324.756L584.382 406.821L520.951 490.855L481.871 547.396L443.394 603.144L369.36 624.732L302.596 656.352L238.785 686.797" stroke="white" stroke-linecap="round" stroke-linejoin="round"/>
<path d="M490.507 669.938L426.696 688.987L390.758 689.78L365.043 699.019L336.757 709.019L310.248 710.003" stroke="white" stroke-linecap="round" stroke-linejoin="round"/>
<path d="M139.86 636.161L100.589 583.747L63.6678 528.19L57.001 518.951L31.8575 487.522L10.841 456.505L1.03125 442.188" stroke="white" stroke-linecap="round" stroke-linejoin="round"/>
<path d="M100.562 583.746L61.6722 531.713L31.8301 487.521" stroke="white" stroke-linecap="round" stroke-linejoin="round"/>
<path d="M650.347 176.338L672.538 226.784L697.872 342.247L701.999 409.805L682.379 465.362L663.141 519.554L623.489 573.936L593.456 571.396L561.646 568.634L481.929 547.427L399.451 525.649L354.497 477.743L309.544 429.647L261.828 378.788L213.922 327.739L185.667 281.611L157.984 236.467L132.46 195.037L107.316 154.211L90.2363 149.29L74.1406 144.782" stroke="white" stroke-linecap="round" stroke-linejoin="round"/>
<path d="M139.068 621.461L110.591 585.714L108.813 583.365L65.8281 519.172L84.4953 439.646L103.734 357.39L185.609 281.61L268.659 204.656" stroke="white" stroke-linecap="round" stroke-linejoin="round"/>
<path d="M267.072 17.8892L285.93 41.4453L305.169 65.7952L324.026 89.5419L343.646 113.892L406.092 190.465L469.522 268.213L507.618 314.151L545.302 359.517L584.382 406.82L622.86 453.171L653.495 459.457L682.353 465.33" stroke="white" stroke-linecap="round" stroke-linejoin="round"/>
<path d="M167.322 663.653L139.035 621.429L109.987 578.222L134.146 480.06L178.338 454.726L261.769 378.756L346.184 301.579L345.2 228.72L406.058 190.434L465.933 152.528L501.68 145.258L536.443 138.401L571.968 131.321L606.318 124.241M167.322 663.653L153.385 649.525L135.702 623.207L110.558 585.714L108.781 583.365L82.6529 550.951L63.6048 528.189L56.9379 518.95L11.3811 451.393L18.8417 387.201L3.12695 375.232L5.28574 309.453L17.0638 253.483L29.4451 196.148L74.0177 144.718L117.987 93.8596L139.385 97.9867L181.417 67.9542L199.862 34.7787L267.007 17.8893L333.644 1L388.82 15.3178L445.552 29.8579L536.475 138.432L629.334 249.578L646.224 324.786L662.732 399.392L622.89 453.203L582.254 507.998L561.65 568.666L541.618 627.969L469.552 649.367L396.693 670.764L352.914 690.606L302.659 656.446L251.61 621.906L202.72 588.73L153.036 555.174L134.178 480.156L84.4942 439.71L35.7945 400.058L18.9052 387.296L26.5562 323.104L33.6357 262.055L40.9057 201.005L90.1769 149.353L139.448 98.1137L162.211 102.431L305.135 65.9224L445.52 29.9849L505.013 51.7633L562.92 72.9702L606.318 124.4L650.287 176.433L640.065 212.561L661.462 309.167L677.177 380.058L682.669 404.789L653.43 459.552L624.191 513.934L593.365 571.46L562.729 628.604L503.839 649.621L445.329 670.447L405.074 684.764L390.756 689.876L352.851 690.669L310.246 710.098L238.784 686.923L167.322 663.748V663.653Z" stroke="white" stroke-linecap="round" stroke-linejoin="round"/>
<path d="M51.0981 270.975L33.6373 261.959L17.1289 253.515" stroke="white" stroke-linecap="round" stroke-linejoin="round"/>
<path d="M153.383 649.525L139.827 636.16L107.636 588.063L82.6829 550.951L64.6189 524.062L22.2051 460.822L35.761 399.963L49.5074 337.517L51.0947 270.944L52.8726 205.577L107.255 154.147L162.241 102.304L214.655 117.606L268.243 133.512L345.198 228.752L423.74 326.152L441.01 399.963L458.09 473.203" stroke="white" stroke-linecap="round" stroke-linejoin="round"/>
<path d="M29.5098 196.18L40.9069 200.879L52.8755 205.577" stroke="white" stroke-linecap="round" stroke-linejoin="round"/>
</svg>
